<svg width="80" height="51" viewBox="0 0 80 51" fill="none" xmlns="http://www.w3.org/2000/svg">
<path d="M12.2447 13.5135C12.2447 13.5135 10.9486 1.86395 6.68632 7.57345C2.42408 13.2829 3.9429 24.9803 0.0623524 43.2061C-0.887905 48.9434 9.28263 48.9315 12.9008 41.8344C13.9703 39.7311 14.1015 37.2819 13.4415 35.0156C11.867 29.5844 12.0221 25.7874 14.2208 31.7831C16.7336 38.6337 18.1053 45.0311 24.3476 45.5639C30.5899 46.0966 37.7466 41.9855 27.6198 36.3515C17.493 30.7176 20.1013 24.4276 25.5324 16.8136C31.8781 8.74238 31.3493 7.11621 28.9915 4.6034C26.6338 2.09058 23.282 2.24167 19.7792 10.2373C16.2764 18.233 13.8828 21.6643 13.0041 17.1675" fill="#D9D9D9"/>
<path d="M23.7075 24.2946C20.809 29.9405 27.3057 36.3696 32.9993 33.0577C44.3229 26.4695 37.19 32.3977 35.1503 38.5366C34.1722 41.4867 35.1782 44.743 37.5955 46.6992C50.8594 57.4264 45.2374 43.3077 44.5972 40.0474C43.1301 32.5805 45.965 29.03 47.8536 24.1634C49.7421 19.2968 55.5153 9.95727 48.9867 8.50604C42.4582 7.05481 37.2218 26.9665 35.1861 23.5312C33.1504 20.096 34.3114 20.2073 36.6055 16.0962C42.8717 6.54986 35.8342 1.78267 23.7115 24.2946H23.7075Z" fill="#D9D9D9"/>
<path d="M62.6282 25.472C60.2704 20.2953 67.6419 48.0675 57.7417 46.4612C31.6076 42.2149 61.2684 31.3326 57.698 19.4286C55.6066 12.4587 54.8909 8.91212 49.7102 6.03749C42.8238 2.20863 53.559 -3.2464 59.1452 2.49093C65.8964 9.42502 58.5926 23.1143 61.6739 19.7785C64.7553 16.4426 65.5386 3.65986 72.0274 1.982C79.0291 0.172935 83.8837 5.20254 72.6317 14.1246C61.837 22.6809 64.6639 23.3369 67.6856 25.5198C74.7867 30.6567 88.2533 45.8648 73.0691 44.171C64.1629 43.177 64.1669 32.4419 62.6282 25.4681V25.472Z" fill="#D9D9D9"/>
</svg>
