<svg width="1326" height="292" viewBox="0 0 1326 292" fill="none" xmlns="http://www.w3.org/2000/svg">
<path d="M17.76 14.192V72.944C17.76 78.128 17.184 82.64 24.384 83.888V86H1.248V83.888C8.448 82.64 7.872 78.128 7.872 72.944V14.192C7.872 9.008 8.448 4.496 1.248 3.248V1.13599H24.384V3.248C17.184 4.496 17.76 9.008 17.76 14.192ZM41.838 4.976L30.51 23.408H27.63L32.91 4.976H41.838ZM107.503 72.944V13.232L84.7508 86H82.6388L57.8708 14.288V72.944C57.8708 78.128 59.2148 82.64 66.4148 83.888V86H45.9668V83.888C53.1668 82.64 54.5108 78.128 54.5108 72.944V14.192C54.5108 9.008 53.1668 4.496 45.9668 3.248V1.13599H63.3428L87.3428 68.336L107.503 1.13599H124.015V3.248C116.815 4.496 117.391 9.008 117.391 14.192V72.944C117.391 78.128 116.815 82.64 124.015 83.888V86H100.879V83.888C108.079 82.64 107.503 78.128 107.503 72.944ZM160.448 42.704V72.944C160.448 78.128 159.872 82.64 167.072 83.888V86H143.936V83.888C151.136 82.64 150.56 78.128 150.56 72.944V14.192C150.56 9.008 151.136 4.496 143.936 3.248V1.13599H167.072V3.248C159.872 4.496 160.448 9.008 160.448 14.192V41.648L183.776 15.344C189.44 8.912 189.824 3.248 183.776 3.248V1.13599H204.224V3.248C197.408 3.248 191.264 11.504 185.984 17.456L168.704 37.04L191.552 69.68C198.656 79.76 202.592 83.12 206.624 83.888V86H190.784L160.448 42.704ZM236.28 20.336L224.184 60.656H248.952L236.28 20.336ZM272.088 83.888V86H247.896V83.888C253.272 83.888 255.192 80.336 253.464 74.864L250.008 64.016H223.128L219.96 74.576C218.04 80.912 219.96 83.888 225.816 83.888V86H207.48V83.888C211.608 83.888 214.776 81.008 216.696 74.576L238.776 1.13599H240.888L264.408 75.248C266.52 81.968 267.768 83.888 272.088 83.888ZM296.915 86H273.779V83.888C280.979 82.64 280.403 78.128 280.403 72.944V14.192C280.403 9.008 280.979 4.496 273.779 3.248V1.13599H300.851C317.939 1.13599 328.403 9.96799 328.403 24.464C328.403 37.232 319.859 48.08 306.419 49.616L320.531 69.68C327.251 79.28 331.379 83.12 335.603 83.888V86H319.763L294.995 50.768C293.651 50.96 292.115 51.152 290.291 51.632V72.944C290.291 78.128 289.715 82.64 296.915 83.888V86ZM295.187 47.6C308.819 47.6 317.555 38.96 317.555 25.328C317.555 12.56 309.875 4.016 298.259 4.016C295.475 4.016 292.883 4.496 290.291 5.55199V47.216C292.115 47.504 293.747 47.6 295.187 47.6ZM365.709 87.632C347.085 87.632 334.605 70.256 334.605 44.24C334.605 18.8 346.605 1.13599 365.709 1.13599C384.717 1.13599 396.717 18.8 396.717 44.336C396.717 69.872 384.717 87.632 365.709 87.632ZM365.517 4.4C353.325 4.4 345.741 20.144 345.741 44.048C345.741 68.144 353.517 84.368 365.709 84.368C377.901 84.368 385.581 68.336 385.581 44.432C385.581 20.432 377.805 4.4 365.517 4.4ZM398.467 1.13599H422.467V3.248C415.267 4.496 415.843 9.008 415.843 14.192V76.496C415.843 81.68 417.091 82.832 421.219 82.832H434.947C445.315 82.832 448.387 75.824 452.227 67.568L454.147 68.336L450.019 86H398.467V83.888C405.667 82.64 405.091 78.128 405.091 72.944V14.192C405.091 9.008 405.667 4.496 398.467 3.248V1.13599ZM471.323 14.192V72.944C471.323 78.128 470.747 82.64 477.947 83.888V86H454.811V83.888C462.011 82.64 461.435 78.128 461.435 72.944V14.192C461.435 9.008 462.011 4.496 454.811 3.248V1.13599H477.947V3.248C470.747 4.496 471.323 9.008 471.323 14.192ZM480.137 64.016H482.249C484.457 76.016 493.097 84.272 503.273 84.272C511.721 84.272 517.193 78.608 517.193 69.872C517.193 47.12 479.753 46.928 479.753 21.968C479.753 9.872 488.585 1.13599 500.777 1.13599C508.937 1.13599 514.025 4.976 517.481 4.976C519.305 4.976 520.265 3.82399 520.649 1.13599H522.665L524.009 24.944L521.897 25.232C518.729 11.888 511.817 4.592 502.217 4.592C494.057 4.592 488.297 9.96799 488.297 17.648C488.297 37.424 526.889 39.632 526.889 65.552C526.889 78.416 517.385 87.632 504.041 87.632C494.729 87.632 490.409 83.216 486.569 83.216C484.457 83.216 483.113 84.56 482.249 87.632H480.137V64.016ZM530.704 93.584L529.552 91.76C532.528 90.128 533.872 88.112 531.76 86.672C530.416 85.808 528.784 83.6 528.784 80.72C528.784 77.168 531.28 74.384 534.544 74.384C537.808 74.384 540.592 77.072 540.592 81.392C540.592 86.192 536.56 90.8 530.704 93.584ZM699.405 20.336L687.309 60.656H712.077L699.405 20.336ZM735.213 83.888V86H711.021V83.888C716.397 83.888 718.317 80.336 716.589 74.864L713.133 64.016H686.253L683.085 74.576C681.165 80.912 683.085 83.888 688.941 83.888V86H670.605V83.888C674.733 83.888 677.901 81.008 679.821 74.576L701.901 1.13599H704.013L727.533 75.248C729.645 81.968 730.893 83.888 735.213 83.888ZM816.722 72.944V13.232L793.97 86H791.858L767.09 14.288V72.944C767.09 78.128 768.434 82.64 775.634 83.888V86H755.186V83.888C762.386 82.64 763.73 78.128 763.73 72.944V14.192C763.73 9.008 762.386 4.496 755.186 3.248V1.13599H772.562L796.562 68.336L816.722 1.13599H833.234V3.248C826.034 4.496 826.61 9.008 826.61 14.192V72.944C826.61 78.128 826.034 82.64 833.234 83.888V86H810.098V83.888C817.298 82.64 816.722 78.128 816.722 72.944ZM851.481 14.192V57.392C851.481 74.096 858.009 82.544 871.065 82.544C884.121 82.544 890.841 74 890.841 57.392V14.192C890.841 7.568 888.249 4.304 882.297 3.248V1.13599H902.745V3.248C896.793 4.304 894.201 7.568 894.201 14.192V57.392C894.201 78.032 885.849 87.632 867.897 87.632C849.945 87.632 841.593 78.032 841.593 57.392V14.192C841.593 9.008 842.169 4.496 834.969 3.248V1.13599H858.105V3.248C850.905 4.496 851.481 9.008 851.481 14.192ZM904.342 1.13599H928.342V3.248C921.142 4.496 921.718 9.008 921.718 14.192V76.496C921.718 81.68 922.966 82.832 927.094 82.832H940.822C951.19 82.832 954.262 75.824 958.102 67.568L960.022 68.336L955.894 86H904.342V83.888C911.542 82.64 910.966 78.128 910.966 72.944V14.192C910.966 9.008 911.542 4.496 904.342 3.248V1.13599ZM964.418 4.4C955.202 4.4 951.458 8.048 950.402 18.032H948.29L949.058 1.13599H1008L1008.77 18.032H1006.66C1005.6 8.048 1001.86 4.4 992.642 4.4H983.618V72.944C983.618 78.128 983.042 82.64 990.242 83.888V86H967.106V83.888C974.306 82.64 973.73 78.128 973.73 72.944V4.4H964.418ZM1026.89 14.192V72.944C1026.89 78.128 1026.31 82.64 1033.51 83.888V86H1010.37V83.888C1017.57 82.64 1017 78.128 1017 72.944V14.192C1017 9.008 1017.57 4.496 1010.37 3.248V1.13599H1033.51V3.248C1026.31 4.496 1026.89 9.008 1026.89 14.192ZM1096.66 72.944V13.232L1073.91 86H1071.8L1047.03 14.288V72.944C1047.03 78.128 1048.37 82.64 1055.57 83.888V86H1035.12V83.888C1042.32 82.64 1043.67 78.128 1043.67 72.944V14.192C1043.67 9.008 1042.32 4.496 1035.12 3.248V1.13599H1052.5L1076.5 68.336L1096.66 1.13599H1113.17V3.248C1105.97 4.496 1106.55 9.008 1106.55 14.192V72.944C1106.55 78.128 1105.97 82.64 1113.17 83.888V86H1090.04V83.888C1097.24 82.64 1096.66 78.128 1096.66 72.944ZM1156.67 33.392V51.92H1154.55C1153.31 44.72 1149.75 44.336 1143.61 44.336H1131.32V76.496C1131.32 81.68 1132.57 82.832 1136.7 82.832H1148.51C1158.87 82.832 1161.95 75.824 1165.79 67.568L1167.71 68.336L1163.58 86H1114.81V83.888C1122.01 82.64 1121.43 78.128 1121.43 72.944V14.192C1121.43 9.008 1122.01 4.496 1114.81 3.248V1.13599H1163.67L1164.44 18.032H1162.33C1161.08 8.144 1157.43 4.304 1149.37 4.304H1131.32V40.976H1143.61C1149.75 40.976 1153.31 40.592 1154.55 33.392H1156.67ZM1168.81 1.13599H1192.71C1217.1 1.13599 1231.88 17.744 1231.88 43.472C1231.88 69.104 1217.1 86 1193.1 86H1168.81V83.888C1176.01 82.64 1175.43 78.128 1175.43 72.944V14.192C1175.43 9.008 1176.01 4.496 1168.81 3.248V1.13599ZM1192.43 4.016C1190.12 4.016 1187.63 4.304 1185.32 4.784V81.584C1187.91 82.64 1190.12 83.12 1193.39 83.12C1211.15 83.12 1221.03 68.912 1221.03 45.68C1221.03 21.104 1209.9 4.016 1192.43 4.016ZM1250.1 14.192V72.944C1250.1 78.128 1249.53 82.64 1256.73 83.888V86H1233.59V83.888C1240.79 82.64 1240.22 78.128 1240.22 72.944V14.192C1240.22 9.008 1240.79 4.496 1233.59 3.248V1.13599H1256.73V3.248C1249.53 4.496 1250.1 9.008 1250.1 14.192ZM1286.37 20.336L1274.28 60.656H1299.05L1286.37 20.336ZM1322.18 83.888V86H1297.99V83.888C1303.37 83.888 1305.29 80.336 1303.56 74.864L1300.1 64.016H1273.22L1270.05 74.576C1268.13 80.912 1270.05 83.888 1275.91 83.888V86H1257.57V83.888C1261.7 83.888 1264.87 81.008 1266.79 74.576L1288.87 1.13599H1290.98L1314.5 75.248C1316.61 81.968 1317.86 83.888 1322.18 83.888ZM32.832 164.192C27.936 164.192 24.672 161.216 24.672 156.896C24.672 152.48 27.936 148.832 32.736 147.968L33.12 149.984C28.416 151.232 29.28 156.704 35.424 156.704C46.08 156.704 47.136 139.904 58.56 139.904C63.168 139.904 66.912 142.496 67.392 145.952C67.776 149.12 65.664 151.712 62.4 152.096C57.12 152.768 57.312 147.2 52.896 147.2C50.496 147.2 48.864 148.928 47.232 151.328C56.832 154.496 61.824 160.16 61.824 167.936C61.824 180.32 49.344 189.536 32.64 189.536C14.496 189.536 1.44 178.496 1.44 163.04C1.44 151.328 8.928 142.4 22.08 138.56C15.264 135.68 10.176 128.384 10.176 121.568C10.176 112.16 19.584 105.728 33.12 105.728C41.568 105.728 47.616 108.224 48.096 111.872V124.544H45.888C44.544 114.848 38.976 108.608 31.68 108.608C24.768 108.608 19.584 114.848 19.584 123.2C19.584 132.704 26.4 138.56 37.056 138.368V140.48C21.312 139.328 11.616 147.872 11.616 162.944C11.616 176.96 19.968 186.368 32.448 186.368C44.16 186.368 53.088 177.92 53.088 166.784C53.088 161.024 50.784 156.416 46.08 153.248C43.104 158.144 39.936 164.192 32.832 164.192ZM633.873 103.136H657.777C682.161 103.136 696.945 119.744 696.945 145.472C696.945 171.104 682.161 188 658.161 188H633.873V185.888C641.073 184.64 640.497 180.128 640.497 174.944V116.192C640.497 111.008 641.073 106.496 633.873 105.248V103.136ZM657.489 106.016C655.185 106.016 652.689 106.304 650.385 106.784V183.584C652.977 184.64 655.185 185.12 658.449 185.12C676.209 185.12 686.097 170.912 686.097 147.68C686.097 123.104 674.961 106.016 657.489 106.016ZM740.51 135.392V153.92H738.398C737.15 146.72 733.598 146.336 727.454 146.336H715.166V178.496C715.166 183.68 716.414 184.832 720.542 184.832H732.35C742.718 184.832 745.79 177.824 749.63 169.568L751.55 170.336L747.422 188H698.654V185.888C705.854 184.64 705.278 180.128 705.278 174.944V116.192C705.278 111.008 705.854 106.496 698.654 105.248V103.136H747.518L748.286 120.032H746.174C744.926 110.144 741.278 106.304 733.214 106.304H715.166V142.976H727.454C733.598 142.976 737.15 142.592 738.398 135.392H740.51ZM754.637 166.016H756.749C758.957 178.016 767.597 186.272 777.773 186.272C786.221 186.272 791.693 180.608 791.693 171.872C791.693 149.12 754.253 148.928 754.253 123.968C754.253 111.872 763.085 103.136 775.277 103.136C783.437 103.136 788.525 106.976 791.981 106.976C793.805 106.976 794.765 105.824 795.149 103.136H797.165L798.509 126.944L796.397 127.232C793.229 113.888 786.317 106.592 776.717 106.592C768.557 106.592 762.797 111.968 762.797 119.648C762.797 139.424 801.389 141.632 801.389 167.552C801.389 180.416 791.885 189.632 778.541 189.632C769.229 189.632 764.909 185.216 761.069 185.216C758.957 185.216 757.613 186.56 756.749 189.632H754.637V166.016ZM819.604 116.192V174.944C819.604 180.128 819.028 184.64 826.228 185.888V188H803.092V185.888C810.292 184.64 809.716 180.128 809.716 174.944V116.192C809.716 111.008 810.292 106.496 803.092 105.248V103.136H826.228V105.248C819.028 106.496 819.604 111.008 819.604 116.192ZM884.866 126.944L882.754 127.328C879.49 113.6 871.426 106.592 861.634 106.592C847.33 106.592 837.346 121.664 837.346 143.552C837.346 170.912 852.994 183.392 866.722 183.392C870.466 183.392 874.114 182.432 877.282 180.608V157.568C877.282 152.384 877.858 147.872 870.658 146.624V144.512H893.41V146.624C886.21 147.872 886.786 152.384 886.786 157.568V170.912C881.89 183.392 872.482 189.632 860.578 189.632C840.61 189.632 827.074 172.352 827.074 147.008C827.074 121.472 840.802 103.136 860.002 103.136C868.834 103.136 874.882 106.976 878.434 106.976C880.162 106.976 881.122 105.824 881.506 103.136H883.522L884.866 126.944ZM907.058 115.808V174.944C907.058 180.128 908.402 184.64 915.602 185.888V188H895.154V185.888C902.354 184.64 903.698 180.128 903.698 174.944V116.192C903.698 111.008 902.354 106.496 895.154 105.248V103.136H911.57L951.89 167.648V116.192C951.89 111.008 950.546 106.496 943.346 105.248V103.136H963.794V105.248C956.594 106.496 955.25 111.008 955.25 116.192V189.632H953.138L907.058 115.808ZM1007.98 135.392V153.92H1005.87C1004.62 146.72 1001.07 146.336 994.923 146.336H982.635V178.496C982.635 183.68 983.883 184.832 988.011 184.832H999.819C1010.19 184.832 1013.26 177.824 1017.1 169.568L1019.02 170.336L1014.89 188H966.123V185.888C973.323 184.64 972.747 180.128 972.747 174.944V116.192C972.747 111.008 973.323 106.496 966.123 105.248V103.136H1014.99L1015.76 120.032H1013.64C1012.4 110.144 1008.75 106.304 1000.68 106.304H982.635V142.976H994.923C1001.07 142.976 1004.62 142.592 1005.87 135.392H1007.98ZM1043.26 188H1020.12V185.888C1027.32 184.64 1026.75 180.128 1026.75 174.944V116.192C1026.75 111.008 1027.32 106.496 1020.12 105.248V103.136H1047.2C1064.28 103.136 1074.75 111.968 1074.75 126.464C1074.75 139.232 1066.2 150.08 1052.76 151.616L1066.88 171.68C1073.6 181.28 1077.72 185.12 1081.95 185.888V188H1066.11L1041.34 152.768C1040 152.96 1038.46 153.152 1036.64 153.632V174.944C1036.64 180.128 1036.06 184.64 1043.26 185.888V188ZM1041.53 149.6C1055.16 149.6 1063.9 140.96 1063.9 127.328C1063.9 114.56 1056.22 106.016 1044.6 106.016C1041.82 106.016 1039.23 106.496 1036.64 107.552V149.216C1038.46 149.504 1040.09 149.6 1041.53 149.6ZM1089.64 176.384C1092.81 176.384 1095.59 179.072 1095.59 182.912C1095.59 186.56 1092.81 189.632 1089.64 189.632C1086.28 189.632 1083.78 186.464 1083.78 182.912C1083.78 179.168 1086.28 176.384 1089.64 176.384ZM1.248 290V287.888C8.448 286.64 7.872 282.128 7.872 276.944V218.192C7.872 213.008 8.448 208.496 1.248 207.248V205.136H28.32C46.464 205.136 57.216 215.312 57.216 232.4C57.216 249.488 46.56 261.2 31.2 261.2C27.072 261.2 22.848 260.336 17.76 258.512V276.944C17.76 282.128 17.184 286.64 24.384 287.888V290H1.248ZM26.784 257.168C38.496 257.168 46.272 246.896 46.272 231.536C46.272 216.656 38.88 208.016 26.016 208.016C22.944 208.016 20.352 208.496 17.76 209.552V254.864C21.312 256.496 23.808 257.168 26.784 257.168ZM91.6778 291.632C73.0538 291.632 60.5738 274.256 60.5738 248.24C60.5738 222.8 72.5738 205.136 91.6778 205.136C110.686 205.136 122.686 222.8 122.686 248.336C122.686 273.872 110.686 291.632 91.6778 291.632ZM91.4858 208.4C79.2938 208.4 71.7098 224.144 71.7098 248.048C71.7098 272.144 79.4858 288.368 91.6778 288.368C103.87 288.368 111.55 272.336 111.55 248.432C111.55 224.432 103.774 208.4 91.4858 208.4ZM147.572 290H124.436V287.888C131.636 286.64 131.06 282.128 131.06 276.944V218.192C131.06 213.008 131.636 208.496 124.436 207.248V205.136H151.508C168.596 205.136 179.06 213.968 179.06 228.464C179.06 241.232 170.516 252.08 157.076 253.616L171.188 273.68C177.908 283.28 182.036 287.12 186.26 287.888V290H170.42L145.652 254.768C144.308 254.96 142.772 255.152 140.948 255.632V276.944C140.948 282.128 140.372 286.64 147.572 287.888V290ZM145.844 251.6C159.476 251.6 168.212 242.96 168.212 229.328C168.212 216.56 160.532 208.016 148.916 208.016C146.132 208.016 143.54 208.496 140.948 209.552V251.216C142.772 251.504 144.404 251.6 145.844 251.6ZM199.325 208.4C190.109 208.4 186.365 212.048 185.309 222.032H183.197L183.965 205.136H242.909L243.677 222.032H241.565C240.509 212.048 236.765 208.4 227.549 208.4H218.525V276.944C218.525 282.128 217.949 286.64 225.149 287.888V290H202.013V287.888C209.213 286.64 208.637 282.128 208.637 276.944V208.4H199.325ZM268.415 290H245.279V287.888C252.479 286.64 251.903 282.128 251.903 276.944V218.192C251.903 213.008 252.479 208.496 245.279 207.248V205.136H297.023L297.791 222.032H295.679C294.431 212.144 290.783 208.304 282.719 208.304H261.791V245.936H274.079C280.223 245.936 283.775 245.552 285.023 238.352H287.135V256.88H285.023C283.775 249.68 280.223 249.296 274.079 249.296H261.791V276.944C261.791 282.128 261.215 286.64 268.415 287.888V290ZM326.99 291.632C308.366 291.632 295.886 274.256 295.886 248.24C295.886 222.8 307.886 205.136 326.99 205.136C345.998 205.136 357.998 222.8 357.998 248.336C357.998 273.872 345.998 291.632 326.99 291.632ZM326.798 208.4C314.606 208.4 307.022 224.144 307.022 248.048C307.022 272.144 314.798 288.368 326.99 288.368C339.182 288.368 346.862 272.336 346.862 248.432C346.862 224.432 339.086 208.4 326.798 208.4ZM359.748 205.136H383.748V207.248C376.548 208.496 377.124 213.008 377.124 218.192V280.496C377.124 285.68 378.372 286.832 382.5 286.832H396.228C406.596 286.832 409.668 279.824 413.508 271.568L415.428 272.336L411.3 290H359.748V287.888C366.948 286.64 366.372 282.128 366.372 276.944V218.192C366.372 213.008 366.948 208.496 359.748 207.248V205.136ZM432.604 218.192V276.944C432.604 282.128 432.028 286.64 439.228 287.888V290H416.092V287.888C423.292 286.64 422.716 282.128 422.716 276.944V218.192C422.716 213.008 423.292 208.496 416.092 207.248V205.136H439.228V207.248C432.028 208.496 432.604 213.008 432.604 218.192ZM471.178 291.632C452.554 291.632 440.074 274.256 440.074 248.24C440.074 222.8 452.074 205.136 471.178 205.136C490.186 205.136 502.186 222.8 502.186 248.336C502.186 273.872 490.186 291.632 471.178 291.632ZM470.986 208.4C458.794 208.4 451.21 224.144 451.21 248.048C451.21 272.144 458.986 288.368 471.178 288.368C483.37 288.368 491.05 272.336 491.05 248.432C491.05 224.432 483.274 208.4 470.986 208.4Z" fill="#D0CDB7"/>
<path d="M232.655 104.768C232.751 105.152 232.559 105.536 232.271 105.728C219.023 118.688 216.719 122.432 210.959 152.192C205.295 182.048 206.062 185.792 214.415 198.752C214.607 198.944 214.607 199.328 214.319 199.712C214.031 200.288 213.167 200.48 212.783 200.096C202.703 189.536 199.823 172.16 203.663 152.192C207.503 132.32 217.103 114.944 231.215 104.384C231.791 104 232.559 104.192 232.655 104.768ZM262.834 148.448H282.802C283.474 148.448 284.05 149.024 283.858 149.888C283.666 150.56 283.09 151.136 282.418 151.232C279.442 151.808 278.482 153.536 277.234 160.064L273.394 179.936C272.914 182.528 270.994 184.928 268.402 186.08C263.506 188.192 257.458 189.536 251.218 189.536C243.058 189.536 235.666 185.312 231.826 177.632C228.658 171.104 227.986 162.56 230.002 151.808C233.074 135.392 244.978 112.544 264.274 112.544C271.762 112.544 276.178 113.888 280.306 115.904C281.842 116.672 282.514 118.304 282.322 120.32L280.306 136.832C280.21 137.408 279.73 137.888 279.154 137.888C278.674 137.888 278.29 137.504 278.29 137.024C278.002 126.56 275.698 116.96 265.234 116.96C252.466 116.96 243.058 132.416 239.314 151.808C235.282 172.544 241.426 185.12 254.002 185.12C260.146 185.12 265.234 181.952 266.002 178.304L269.17 161.408C270.802 153.248 268.402 151.904 262.162 151.232C261.394 151.136 260.914 150.464 261.202 149.696C261.394 149.024 262.162 148.448 262.834 148.448ZM331.034 183.2C331.61 183.488 331.706 184.16 331.322 184.736C330.266 186.464 327.674 189.536 322.97 189.536C315.194 189.536 312.506 183.68 314.81 172.16C316.634 162.56 314.906 154.4 308.282 154.4C306.65 154.4 305.498 154.4 304.058 154.208C303.386 154.208 302.714 154.688 302.522 155.456L298.778 174.944C297.242 182.816 297.818 184.64 303.098 185.216C303.866 185.312 304.25 185.984 304.058 186.752C303.866 187.52 303.098 188 302.33 188H282.746C281.978 188 281.498 187.328 281.594 186.56H281.69C281.786 185.888 282.362 185.312 283.13 185.216C288.41 184.448 289.082 182.816 291.098 172.448L300.122 125.6C301.274 119.36 300.986 117.632 296.282 116.96C295.514 116.768 295.13 116.096 295.418 115.328C295.61 114.56 296.378 114.08 297.146 114.08H316.346C329.594 114.08 336.89 120.512 334.298 133.664C332.378 143.552 327.29 149.696 319.61 152.576C318.938 152.864 318.746 153.728 319.226 154.016C323.642 156.896 324.698 163.232 323.354 170.048C321.818 178.112 320.666 185.312 325.946 185.312C326.906 185.312 328.25 184.832 329.402 183.584C329.882 183.104 330.554 182.912 331.034 183.2ZM307.802 149.984C317.978 149.984 323.642 143.936 325.466 134.24C327.866 121.952 323.45 118.208 312.506 118.208C310.202 118.208 309.53 119.264 308.954 122.24L304.442 145.664C303.962 147.968 305.498 149.888 307.802 149.984ZM387.167 185.216C387.839 185.312 388.223 185.888 388.127 186.56C387.935 187.328 387.167 188 386.399 188H368.735C367.871 188 367.391 187.232 367.679 186.368C367.871 185.792 368.543 185.312 369.119 185.216C371.519 185.024 373.631 184.064 374.015 182.144C374.303 180.512 374.399 177.536 374.015 174.368L372.767 164.384C372.767 164.096 372.479 163.904 372.191 163.904H352.319C352.031 163.904 351.647 164.096 351.455 164.48L345.599 176.576C344.927 178.016 344.255 179.936 343.967 181.28C343.391 184.352 344.639 185.12 347.519 185.312C348.287 185.312 348.767 185.984 348.575 186.752C348.383 187.424 347.615 188 346.943 188H333.791C332.831 188 332.351 187.136 332.735 186.176C333.023 185.696 333.503 185.312 334.079 185.216C337.919 184.448 339.455 181.472 346.463 167.264L373.247 113.216C373.439 112.736 374.015 112.448 374.495 112.544C374.879 112.64 375.071 112.928 375.071 113.216L382.655 175.616C383.423 182.144 383.807 184.544 387.167 185.216ZM371.423 159.296C371.999 159.296 372.479 158.816 372.383 158.336L369.503 132.224C369.503 131.648 369.119 131.456 368.639 131.456C368.159 131.456 367.679 131.648 367.391 132.224L354.527 158.336C354.239 158.816 354.527 159.296 355.007 159.296H371.423ZM406.079 114.08H425.471C433.439 114.08 438.623 116.864 441.503 121.088C443.519 124.256 443.999 128.864 442.943 134.432C441.791 140.288 439.199 145.376 435.551 149.024C429.791 154.88 425.663 155.84 417.023 155.84C415.391 155.84 414.335 155.744 412.895 155.648C412.223 155.552 411.455 156.128 411.359 156.8L407.903 174.944C406.367 182.816 406.847 184.64 412.127 185.216C412.895 185.312 413.279 185.888 413.183 186.56C412.991 187.328 412.223 188 411.455 188H391.871C391.103 188 390.527 187.328 390.719 186.56C390.815 185.888 391.487 185.312 392.159 185.216C397.439 184.448 398.207 182.816 399.935 173.792L408.863 127.04C410.399 119.36 410.015 117.632 405.311 116.96C404.639 116.768 404.255 116.192 404.351 115.52C404.543 114.752 405.311 114.08 406.079 114.08ZM417.983 122.24L413.183 147.008C412.799 149.408 414.239 151.328 416.639 151.328C426.815 151.328 432.191 144.416 434.111 135.008C436.415 122.72 432.479 118.208 421.631 118.208C419.231 118.208 418.559 119.264 417.983 122.24ZM504.549 116.864C498.789 117.44 497.541 119.072 496.005 127.04L486.789 174.944C485.253 182.72 486.021 184.736 491.397 185.216C492.069 185.312 492.453 185.888 492.357 186.656C492.165 187.424 491.493 188 490.725 188H469.701C468.837 188 468.261 187.232 468.645 186.368C468.837 185.792 469.509 185.312 470.085 185.216C475.749 184.736 476.997 183.008 478.533 174.944L482.565 154.016C482.757 153.344 482.277 152.864 481.605 152.864H459.621C458.949 152.864 458.373 153.344 458.181 154.016L454.149 174.944C452.709 182.72 453.381 184.736 458.757 185.216C459.525 185.312 459.909 185.888 459.813 186.656C459.621 187.424 458.949 188 458.181 188H437.061C436.293 188 435.717 187.232 436.101 186.368C436.293 185.792 436.965 185.312 437.541 185.216C443.205 184.736 444.453 183.008 445.989 174.944L455.205 127.04C456.837 118.784 456.261 117.44 450.693 116.864C449.925 116.768 449.541 116.192 449.637 115.52L449.733 115.424C449.829 114.656 450.597 114.08 451.365 114.08H472.389C473.157 114.08 473.637 114.656 473.445 115.424V115.52C473.349 116.192 472.677 116.768 472.005 116.864C466.245 117.44 464.901 119.072 463.365 127.04L459.621 146.72C459.525 147.392 459.909 147.872 460.581 147.872H482.565C483.237 147.872 483.909 147.392 484.005 146.72L487.845 127.04C489.381 118.784 488.805 117.44 483.237 116.864C482.565 116.768 482.085 116.192 482.277 115.52V115.424C482.373 114.656 483.141 114.08 483.909 114.08H504.933C505.701 114.08 506.181 114.656 506.085 115.424V115.52C505.893 116.192 505.221 116.768 504.549 116.864ZM499.327 186.656C499.423 185.888 500.095 185.312 500.863 185.216C506.527 184.736 507.775 183.104 509.311 174.944L518.527 127.04C520.159 118.784 519.583 117.44 514.015 116.864C513.247 116.768 512.863 116.192 512.959 115.52L513.055 115.424C513.151 114.656 513.919 114.08 514.687 114.08H535.711C536.479 114.08 536.959 114.656 536.767 115.424V115.52C536.671 116.192 535.999 116.768 535.327 116.864C529.567 117.44 528.223 119.072 526.687 127.04L517.471 174.944C516.031 182.72 516.703 184.736 522.079 185.216C522.847 185.312 523.231 185.888 523.135 186.656C522.943 187.424 522.271 188 521.503 188H500.383C499.615 188 499.135 187.424 499.327 186.656ZM577.997 174.752C578.189 175.136 578.093 175.616 577.805 176.096C571.469 184.928 562.925 189.536 553.709 189.536C546.413 189.536 540.173 185.984 536.717 179.648C533.165 172.928 532.301 162.752 534.413 151.712C536.525 140.576 540.941 131.264 546.893 124.16C553.613 116.192 561.197 112.544 568.589 112.544C576.077 112.544 580.589 113.888 584.621 115.904C586.253 116.672 587.021 118.4 586.637 120.32L584.717 136.832C584.621 137.408 584.045 137.888 583.469 137.888C582.989 137.888 582.701 137.504 582.701 137.024C582.413 126.56 580.109 116.96 569.645 116.96C556.781 116.96 547.757 130.592 544.013 149.888C541.709 162.176 541.997 170.912 544.685 176.576C547.181 181.856 551.885 184.64 557.357 184.64C564.173 184.64 569.069 181.664 575.885 174.656C576.557 173.984 577.613 173.984 577.997 174.752ZM598.799 104.768C599.183 104.192 599.951 104 600.431 104.384C610.415 115.04 613.295 132.32 609.551 152.192C605.615 172.16 596.111 189.536 581.999 200.096C581.423 200.48 580.655 200.384 580.559 199.712C580.463 199.424 580.559 199.04 580.847 198.752C594.191 185.792 596.399 182.048 602.159 152.192C607.919 122.432 607.055 118.688 598.799 105.824C598.607 105.536 598.607 105.152 598.799 104.768Z" fill="#64A67E"/>
<path d="M541.08 211.32C541.12 211.48 541.04 211.64 540.92 211.72C535.4 217.12 534.44 218.68 532.04 231.08C529.68 243.52 530 245.08 533.48 250.48C533.56 250.56 533.56 250.72 533.44 250.88C533.32 251.12 532.96 251.2 532.8 251.04C528.6 246.64 527.4 239.4 529 231.08C530.6 222.8 534.6 215.56 540.48 211.16C540.72 211 541.04 211.08 541.08 211.32ZM550.095 237.24C550.375 237.24 550.535 237.48 550.455 237.76L548.175 245.08C547.975 245.6 547.455 246 546.935 246H535.215C534.975 246 534.815 245.8 534.855 245.56C534.895 245.48 534.935 245.4 534.975 245.32L542.535 236.64C546.535 232.04 548.415 228.52 549.175 224.56C550.015 220.32 548.655 218 545.815 218C543.495 218 542.055 219.4 539.935 223.64C539.815 223.88 539.575 224 539.375 223.92C539.215 223.84 539.135 223.68 539.175 223.48C540.935 218.2 543.775 214.56 547.815 214.56C551.575 214.56 553.295 218.12 552.415 222.72C551.695 226.4 549.735 229.92 545.935 234.28L539.615 241.56C539.295 241.96 539.455 242.48 539.935 242.48H542.775C546.975 242.48 548.015 241.44 549.575 237.6C549.655 237.4 549.895 237.24 550.095 237.24ZM556.667 246.64C550.987 246.64 550.787 238 552.267 230.36C553.867 222.12 557.627 214.56 562.987 214.56C567.387 214.56 569.147 221.12 567.307 230.64C565.747 238.64 562.107 246.64 556.667 246.64ZM562.547 215.76C559.787 215.76 557.227 221.24 555.427 230.68C553.587 240.12 554.027 245.44 556.907 245.44C559.747 245.44 562.267 240.08 564.067 230.88C565.907 221.2 565.507 215.76 562.547 215.76ZM580.021 237.24C580.301 237.24 580.461 237.48 580.381 237.76L578.101 245.08C577.901 245.6 577.381 246 576.861 246H565.141C564.901 246 564.741 245.8 564.781 245.56C564.821 245.48 564.861 245.4 564.901 245.32L572.461 236.64C576.461 232.04 578.341 228.52 579.101 224.56C579.941 220.32 578.581 218 575.741 218C573.421 218 571.981 219.4 569.861 223.64C569.741 223.88 569.501 224 569.301 223.92C569.141 223.84 569.061 223.68 569.101 223.48C570.861 218.2 573.701 214.56 577.741 214.56C581.501 214.56 583.221 218.12 582.341 222.72C581.621 226.4 579.661 229.92 575.861 234.28L569.541 241.56C569.221 241.96 569.381 242.48 569.861 242.48H572.701C576.901 242.48 577.941 241.44 579.501 237.6C579.581 237.4 579.821 237.24 580.021 237.24ZM595.353 238.24H592.833C592.593 238.24 592.313 238.44 592.273 238.72L591.753 241.52C591.273 243.88 592.393 244.6 594.073 244.84C594.313 244.88 594.473 245.12 594.433 245.4C594.353 245.72 594.033 246 593.713 246H584.753C584.393 246 584.153 245.68 584.273 245.32C584.353 245.04 584.633 244.84 584.873 244.8C586.633 244.52 588.673 243.8 589.193 241.32L589.673 238.72C589.713 238.44 589.553 238.24 589.313 238.24H580.353C580.073 238.24 579.833 238.08 579.713 237.88C579.553 237.6 579.593 237.24 579.793 236.92L595.513 214.92C595.673 214.68 595.953 214.56 596.193 214.56C596.393 214.56 596.553 214.6 596.673 214.72C596.793 214.88 596.833 215.08 596.793 215.28L593.033 234.8C592.993 235.04 593.153 235.24 593.433 235.24H595.913C596.153 235.24 596.353 235.48 596.313 235.72L595.913 237.76C595.833 238 595.593 238.24 595.353 238.24ZM582.473 234.72C582.313 234.96 582.433 235.24 582.673 235.24H589.873C590.113 235.24 590.393 235.04 590.433 234.8L592.993 221.56C593.033 221.24 592.673 221.16 592.473 221.4L582.473 234.72ZM601.835 211.32C601.995 211.08 602.315 211 602.515 211.16C606.675 215.6 607.875 222.8 606.315 231.08C604.675 239.4 600.715 246.64 594.835 251.04C594.595 251.2 594.275 251.16 594.235 250.88C594.195 250.76 594.235 250.6 594.355 250.48C599.915 245.08 600.835 243.52 603.235 231.08C605.635 218.68 605.275 217.12 601.835 211.76C601.755 211.64 601.755 211.48 601.835 211.32Z" fill="#D0CDB7"/>
<rect x="1129" y="102" width="92" height="86" fill="#BF5C5C"/>
<rect x="88" y="104" width="92" height="85" fill="#64A67E"/>
<rect x="558" width="92" height="86" fill="#4680C4"/>
</svg>
